<?xml version="1.0" standalone="no"?><svg xmlns="http://www.w3.org/2000/svg" viewBox="0 0 1440 320"><path fill="#121212" fill-opacity="1" d="M0,256L26.7,250.7C53.3,245,107,235,160,213.3C213.3,192,267,160,320,176C373.3,192,427,256,480,261.3C533.3,267,587,213,640,197.3C693.3,181,747,203,800,186.7C853.3,171,907,117,960,90.7C1013.3,64,1067,64,1120,74.7C1173.3,85,1227,107,1280,144C1333.3,181,1387,235,1413,261.3L1440,288L1440,0L1413.3,0C1386.7,0,1333,0,1280,0C1226.7,0,1173,0,1120,0C1066.7,0,1013,0,960,0C906.7,0,853,0,800,0C746.7,0,693,0,640,0C586.7,0,533,0,480,0C426.7,0,373,0,320,0C266.7,0,213,0,160,0C106.7,0,53,0,27,0L0,0Z"></path></svg>